<svg width="1000" height="1000" viewBox="0 0 1000 1000" fill="none" xmlns="http://www.w3.org/2000/svg">
<path d="M673.76 385.709C668.98 364.095 660.875 343.209 649.445 323.05C638.015 302.683 623.363 284.395 605.49 268.184C587.825 251.766 567.043 238.777 543.143 229.217C519.451 219.658 492.85 214.878 463.339 214.878C418.241 214.878 378.235 226.724 343.321 250.415C308.615 273.9 281.39 307.463 261.647 351.106C242.111 394.541 232.343 445.977 232.343 505.415C232.343 564.229 242.111 615.457 261.647 659.1C281.182 702.743 308.511 736.514 343.633 760.414C378.963 784.106 420.008 795.952 466.768 795.952C508.541 795.952 545.533 786.288 577.746 766.961C610.166 747.633 635.417 719.993 653.498 684.039C671.578 648.086 680.411 605.066 679.995 554.981L693.711 561.527H476.744V525.366H697.724L718.027 561.527C718.027 617.847 707.22 666.374 685.606 707.107C664.201 747.633 634.482 778.807 596.45 800.628C558.626 822.45 515.399 833.36 466.768 833.36C411.903 833.36 364 819.748 323.058 792.523C282.117 765.298 250.32 727.162 227.667 678.116C205.222 628.862 194 571.295 194 505.415C194 455.953 200.443 411.063 213.328 370.745C226.213 330.427 244.605 295.929 268.505 267.249C292.404 238.362 320.876 216.228 353.92 200.85C386.964 185.263 423.437 177.469 463.339 177.469C499.5 177.469 532.025 183.496 560.912 195.55C589.8 207.396 614.739 223.398 635.729 243.557C656.927 263.508 674.072 285.849 687.165 310.58C700.258 335.104 709.09 360.146 713.662 385.709H673.76Z" fill="white"/>
<path d="M341.515 763.182H300.366L512.642 176.781L568.824 196.094L806 763.182H764.851L546 197.849L544.245 196.094L341.515 763.182ZM399.809 522.835L702.257 526.164L706.556 558.996H399.809V522.835Z" fill="white"/>
<path d="M612.713 335.272C609.388 295.578 593.178 263.469 564.082 238.946C535.195 214.423 497.787 202.161 451.858 202.161C420.892 202.161 393.355 207.876 369.248 219.307C345.14 230.737 326.228 246.324 312.512 266.067C298.796 285.81 291.937 308.463 291.937 334.025C291.937 350.443 295.055 365.303 301.29 378.603C307.732 391.696 316.772 403.438 328.41 413.829C340.049 424.013 353.869 432.949 369.871 440.639C385.874 448.328 403.539 455.082 422.866 460.901L492.695 481.476C516.595 488.75 538.624 497.167 558.783 506.726C579.149 516.286 596.814 527.717 611.778 541.017C626.949 554.11 638.691 569.489 647.004 587.154C655.525 604.819 659.785 625.186 659.785 648.254C659.785 681.922 651.056 712.056 633.599 738.657C616.35 765.259 591.723 786.249 559.718 801.628C527.921 816.799 490.409 824.385 447.182 824.385C406.033 824.385 370.183 817.423 339.633 803.498C309.291 789.574 285.287 770.247 267.622 745.516C249.957 720.577 239.982 691.897 237.696 659.477L257.045 663.108C259.124 689.501 288.093 708.731 302.848 728.058C317.811 747.178 337.659 761.934 362.39 772.325C387.121 782.716 415.385 787.912 447.182 787.912C481.472 787.912 511.711 782.093 537.897 770.454C564.082 758.609 584.553 742.19 599.308 721.2C614.064 700.21 621.442 675.791 621.442 647.943C621.442 625.498 616.142 606.274 605.543 590.272C594.944 574.269 579.253 560.449 558.471 548.811C537.897 537.173 512.334 526.781 481.784 517.637L407.279 495.192C357.402 480.021 319.266 459.343 292.873 433.157C266.687 406.971 253.594 374.343 253.594 335.272C253.594 302.436 262.323 273.341 279.78 247.986C297.237 222.424 320.929 202.369 350.855 187.821C380.99 173.274 414.969 166 452.793 166C490.824 166 524.388 173.378 553.483 188.133C582.579 202.681 605.647 222.736 622.688 248.298C639.73 273.653 649.186 302.644 651.056 335.272H612.713Z" fill="white"/>
</svg>
