<svg width="715" height="212" viewBox="0 0 715 212" fill="none" xmlns="http://www.w3.org/2000/svg">
<path d="M475 153.861V125.821H504.138V138.159C523.862 142.645 531.782 139.28 533.276 137.037V121.335L475 101.146V48.4315C525.207 34.9724 553.448 42.8235 561.293 48.4315V76.4712H533.276V65.2553C522.517 61.6662 508.621 63.7598 503.017 65.2553V83.2007L561.293 104.511V156.104C514.672 167.769 484.339 159.469 475 153.861Z" fill="white"/>
<path d="M581.466 42.8235V159.469L610.603 160.59V116.848H620.69L638.621 160.59L670 159.469L643.103 100.025L670 42.8235H639.741L620.69 86.5655H610.603V42.8235H581.466Z" fill="white"/>
<path d="M45 43H132.298V70.8468H74.0993V135.451C76.7854 139.016 94.6181 136.937 103.199 135.451V110.946H90.8874V92.0104H132.298V152.16C98.2742 169.982 59.9227 159.585 45 152.16V43Z" fill="white"/>
<path d="M346.747 160H270V43.1132L304.481 42L296.695 69.8302V131.057H325.614C327.838 113.616 330.73 76.9547 324.502 69.8302H310.042V42H345.635C350.084 54.6164 358.537 84.0792 356.758 101C356.758 111.019 352.308 153.321 346.747 160Z" fill="white"/>
<path d="M190.424 115.429H212.815L200.5 138.829H182.587L179.228 158.886H149L184.826 43H200.5V71.9714H198.261L190.424 115.429Z" fill="white"/>
<path d="M216.174 44.1143L252 160H220.652L216.174 138.829H199.38V116.543H211.696L202.739 71.9714H198.261L199.117 70.6396C196.221 70.117 192.673 69.239 190.424 68.6286L198.46 45.6331L196.022 45.2286L197.141 43H199.38H216.174V44.1143Z" fill="white"/>
<path d="M149 160V158.886C149.373 158.514 150.343 157.771 151.239 157.771C152.135 157.771 170.272 157.029 179.228 156.657V160H149Z" fill="white"/>
<path d="M310.966 42H304.272L292 69.8442H310.966V42Z" fill="white"/>
<path d="M375.673 42V155.604C403.341 167.188 440.009 160.431 454.884 155.604V129.988C443.282 136.225 416.58 136.299 404.68 135.557V113.281H441.497V86.5507H404.68V69.8442H456V43.1138L375.673 42Z" fill="white"/>
</svg>
